<?xml version="1.0" standalone="no"?>
<!DOCTYPE svg PUBLIC "-//W3C//DTD SVG 20010904//EN"
 "http://www.w3.org/TR/2001/REC-SVG-20010904/DTD/svg10.dtd">
<svg version="1.0" xmlns="http://www.w3.org/2000/svg"
 width="500.000000pt" height="500.000000pt" viewBox="0 0 500.000000 500.000000"
 preserveAspectRatio="xMidYMid meet">

<g transform="translate(0.000000,500.000000) scale(0.100000,-0.100000)"
fill="#fff" stroke="none">
<path d="M2350 3443 c-75 -26 -121 -63 -153 -123 -25 -48 -28 -64 -25 -121 3
-53 9 -75 32 -108 37 -53 121 -100 244 -137 l92 -27 0 -160 0 -160 -57 6 c-64
6 -132 39 -175 84 -31 34 -68 101 -68 125 0 15 -9 18 -50 18 l-51 0 3 -157 3
-158 42 -3 42 -3 3 73 3 73 30 -31 c47 -49 110 -90 160 -104 32 -9 43 -16 36
-23 -6 -6 -11 -26 -11 -44 l0 -33 160 0 160 0 0 34 c0 39 -14 46 -92 46 l-48
0 0 139 0 138 77 7 c42 3 105 6 140 6 l63 0 0 35 c0 31 -3 35 -25 35 -15 0
-40 15 -65 39 -22 21 -62 47 -89 59 l-50 20 -3 -56 c-3 -49 -6 -57 -23 -57
-19 0 -20 8 -23 143 l-3 142 165 0 165 0 7 -60 7 -60 33 0 34 0 0 94 0 93 -61
7 c-34 3 -82 6 -105 6 l-44 0 0 105 0 105 -50 0 -50 0 0 -40 c0 -22 -2 -40 -5
-40 -3 0 -24 14 -47 30 -23 17 -64 37 -91 45 -65 19 -179 18 -237 -2z m231
-93 c53 -15 143 -90 127 -106 -3 -2 -63 -7 -134 -11 l-129 -8 0 -30 c0 -29 2
-30 48 -33 l47 -3 0 -60 c0 -53 -2 -59 -21 -59 -31 0 -171 58 -196 82 -29 27
-46 80 -38 118 8 37 53 86 97 105 38 17 147 19 199 5z"/>
<path d="M2750 2753 c0 -32 -33 -91 -55 -99 -11 -5 -15 -22 -15 -66 l0 -60 28
7 c71 17 138 88 161 171 20 72 19 74 -54 74 -64 0 -65 0 -65 -27z"/>
<path d="M2235 2323 c-42 -10 -65 -44 -65 -95 0 -84 64 -122 140 -83 23 12 30
24 35 57 9 59 -7 96 -50 113 -19 8 -36 14 -37 14 -2 -1 -12 -3 -23 -6z m65
-52 c24 -46 1 -111 -40 -111 -37 0 -50 17 -50 65 0 23 5 46 12 53 19 19 66 15
78 -7z"/>
<path d="M1862 2308 c-7 -7 -12 -25 -12 -40 0 -22 9 -33 41 -53 48 -31 46 -50
-5 -50 -51 0 -46 -29 6 -33 46 -4 83 27 72 61 -3 12 -7 22 -8 22 0 1 -18 13
-39 29 -43 31 -40 46 9 46 24 0 34 5 34 15 0 19 -80 21 -98 3z"/>
<path d="M2010 2225 c0 -78 3 -95 15 -95 10 0 15 11 15 35 0 29 4 35 21 35 23
0 60 18 71 34 27 41 -13 86 -77 86 l-45 0 0 -95z m85 35 c0 -20 -6 -26 -27
-28 -25 -3 -28 0 -28 28 0 28 3 31 28 28 21 -2 27 -8 27 -28z"/>
<path d="M2390 2225 c0 -88 1 -95 20 -95 17 0 20 7 20 40 0 52 18 52 48 0 15
-26 30 -40 43 -40 22 0 21 4 -14 54 -18 26 -19 29 -4 38 11 6 17 22 17 43 0
42 -20 55 -84 55 l-46 0 0 -95z m88 39 c2 -13 -4 -24 -13 -28 -24 -9 -35 1
-35 30 0 21 4 25 23 22 13 -2 23 -11 25 -24z"/>
<path d="M2550 2305 c0 -9 9 -15 25 -15 25 0 25 -1 25 -80 0 -79 0 -80 25 -80
25 0 25 1 25 80 0 79 0 80 25 80 16 0 25 6 25 15 0 12 -15 15 -75 15 -60 0
-75 -3 -75 -15z"/>
<path d="M2800 2225 c0 -88 1 -95 20 -95 17 0 20 7 20 40 0 38 2 40 30 40 20
0 30 5 30 15 0 10 -10 15 -30 15 -25 0 -30 4 -30 25 0 22 4 25 35 25 24 0 35
5 35 15 0 12 -13 15 -55 15 l-55 0 0 -95z"/>
<path d="M2950 2224 c0 -81 2 -95 16 -92 12 2 16 22 20 96 5 88 4 92 -15 92
-20 0 -21 -6 -21 -96z"/>
<path d="M3020 2305 c0 -9 9 -15 25 -15 25 0 25 -1 25 -80 0 -73 2 -80 20 -80
18 0 20 7 20 80 0 79 0 80 25 80 16 0 25 6 25 15 0 12 -14 15 -70 15 -56 0
-70 -3 -70 -15z"/>
<path d="M1720 1955 c0 -37 4 -65 10 -65 6 0 10 11 10 25 0 14 4 25 10 25 5 0
17 -11 26 -25 9 -14 23 -25 31 -25 11 0 10 6 -7 27 -14 18 -17 30 -10 37 15
15 12 53 -6 60 -9 3 -27 6 -40 6 -23 0 -24 -3 -24 -65z m55 25 c0 -8 -8 -16
-17 -18 -13 -2 -18 3 -18 18 0 15 5 20 18 18 9 -2 17 -10 17 -18z"/>
<path d="M1849 2004 c-20 -24 -16 -84 6 -100 46 -34 97 -7 97 51 0 26 -6 43
-18 52 -24 18 -69 16 -85 -3z m73 -30 c15 -33 0 -59 -33 -59 -19 0 -25 6 -27
28 -5 40 4 57 28 57 12 0 25 -10 32 -26z"/>
<path d="M1990 1955 c0 -37 4 -65 10 -65 6 0 10 11 10 24 0 18 7 25 30 30 25
5 30 10 30 35 0 30 -14 41 -56 41 -23 0 -24 -3 -24 -65z m55 25 c0 -8 -8 -16
-17 -18 -13 -2 -18 3 -18 18 0 15 5 20 18 18 9 -2 17 -10 17 -18z"/>
<path d="M2117 1978 c-26 -71 -29 -88 -17 -88 6 0 13 7 16 15 4 8 17 15 30 15
14 0 27 -7 30 -15 4 -8 12 -15 20 -15 19 0 -27 124 -48 128 -10 2 -20 -12 -31
-40z m43 -19 c0 -11 -7 -19 -16 -19 -11 0 -14 5 -10 16 3 9 6 20 6 25 0 6 5 7
10 4 6 -3 10 -15 10 -26z"/>
<path d="M2280 1955 c0 -64 0 -65 28 -65 43 0 72 26 72 64 0 41 -26 66 -68 66
l-32 0 0 -65z m71 24 c15 -29 -3 -69 -31 -69 -17 0 -20 7 -20 45 0 38 3 45 20
45 10 0 24 -10 31 -21z"/>
<path d="M2410 1955 l0 -65 40 0 c22 0 40 5 40 10 0 6 -11 10 -25 10 -18 0
-25 5 -25 20 0 13 7 20 20 20 11 0 20 5 20 10 0 6 -9 10 -20 10 -11 0 -20 7
-20 15 0 9 9 15 25 15 14 0 25 5 25 10 0 6 -18 10 -40 10 l-40 0 0 -65z"/>
<path d="M2520 1956 c0 -37 4 -66 10 -66 6 0 10 11 10 24 0 19 6 25 28 28 24
3 27 7 27 38 0 33 -2 35 -37 38 l-38 3 0 -65z m58 21 c2 -12 -3 -17 -17 -17
-15 0 -21 6 -21 21 0 25 33 22 38 -4z"/>
<path d="M2647 2002 c-22 -25 -21 -75 1 -95 42 -38 102 -8 102 50 0 55 -67 85
-103 45z m68 -47 c0 -34 -3 -40 -22 -43 -16 -2 -26 4 -34 21 -15 33 4 69 34
65 18 -2 22 -10 22 -43z"/>
<path d="M2780 1955 c0 -51 3 -65 15 -65 9 0 15 9 15 25 0 14 5 25 10 25 6 0
16 -11 22 -25 6 -14 17 -25 24 -25 10 0 9 8 -4 31 -13 24 -14 33 -4 36 15 6
16 35 0 51 -7 7 -27 12 -45 12 l-33 0 0 -65z m65 25 c0 -8 -8 -16 -17 -18 -13
-2 -18 3 -18 18 0 15 5 20 18 18 9 -2 17 -10 17 -18z"/>
<path d="M2890 2010 c0 -5 9 -10 20 -10 18 0 20 -7 20 -55 0 -30 5 -55 10 -55
6 0 10 25 10 55 0 48 2 55 20 55 11 0 20 5 20 10 0 6 -22 10 -50 10 -27 0 -50
-4 -50 -10z"/>
<path d="M3010 1955 c0 -51 3 -65 15 -65 12 0 15 14 15 65 0 51 -3 65 -15 65
-12 0 -15 -14 -15 -65z"/>
<path d="M3062 2009 c3 -8 13 -38 22 -66 26 -79 41 -71 75 36 6 19 9 36 7 39
-8 7 -26 -9 -26 -22 0 -8 -6 -29 -14 -47 l-14 -33 -14 49 c-8 27 -21 51 -28
53 -8 3 -11 -1 -8 -9z"/>
<path d="M3204 1968 c-9 -29 -19 -59 -22 -65 -2 -7 3 -13 12 -13 9 0 16 7 16
15 0 10 10 15 30 15 20 0 30 -5 30 -15 0 -8 7 -15 16 -15 8 0 13 3 11 8 -2 4
-12 33 -22 65 -24 76 -47 78 -71 5z m56 -20 c0 -5 -9 -8 -20 -8 -22 0 -23 3
-13 39 l6 23 13 -23 c7 -13 13 -27 14 -31z"/>
</g>
</svg>
